<svg version="1.2" xmlns="http://www.w3.org/2000/svg" viewBox="0 0 250 40" width="250" height="40">
	<title>New Project</title>
	<style>
		.s0 { fill: #212020 } 
		.s1 { fill: #ff8c42 } 
	</style>
	<path id="MEGAMART" class="s0" aria-label="MEGAMART"  d="m39.3 4.6h-10.3l-6.9 15-3-15h-11l-7.8 30.4h5.7l4.3-19.1 3.7 19.1h6.1l8.4-19.1c-0.7 8.5-1 11.5-1 14.3 0 3.7 2 5.7 5.7 5.7 3.2 0 5.2-1.3 6-2.4-0.7-1.3-1-2.8-1-5.9 0-4 0.5-10.6 1.1-23zm17.1 5.6c1.9 0.6 3.6 0.8 5.1 0.8 3.4 0 5.6-1.5 5.6-4.7 0-0.6-0.1-1.1-0.1-1.7-3.4 0.1-6.8 0.2-10.1 0.2-3.9 0-7.7-0.1-11.7-0.2l-5.5 30.4h17.8c2.9 0 4.4-1.6 4.4-3.8 0-0.8-0.2-1.7-0.6-2.6-1.2 0.1-3.5 0.2-5.7 0.2-0.9 0-1.8 0-2.7 0l1.4-6.7c1.5 0.5 2.8 0.7 4 0.7 3 0 4.9-1.6 4.9-4.5 0-0.4-0.1-0.9-0.2-1.3-0.9 0-1.9 0-2.9 0-1.9 0-3.8 0-4.9-0.1zm40.8 8.9l-11 0.8-1.4 9c-0.4 0.7-1.7 1.1-2.6 1.1-3.7 0-4.3-5.1-4.3-7.9 0-6.6 3.3-15.1 7-15.1 1.8 0 2.6 1.6 2.6 4.2 0 1.2-0.2 2.6-0.4 4.1 0.7 0.1 1.4 0.1 2 0.1 3.8 0 7.3-2.7 7.3-6.3 0-4.7-5.8-5.4-10.2-5.4-12.6 0-20.2 7-20.2 19.1 0 7.9 3.3 13.1 10.7 13.1 2.5 0 5.9-0.6 8.2-2.8 0 1 2.1 2.8 5.3 2.8 1.4 0 2.3-0.2 3.5-0.9-0.1-6 1.2-10.9 3.5-15.9zm27.5 13.8c-2.5-3.8-2.5-10.1-3.4-28.2h-12.2l-14.8 30.3h7c0.5-1.9 1.4-4.3 2.5-7.2h7.7c0.7 5.3 2.3 8.1 7 8.1 3 0 5.2-1.1 6.2-3zm-14-20.4l0.6 11.5h-6c1.4-3.1 3.1-6.9 5.4-11.5z"/>
	<path id="MEGAMART" class="s1" aria-label="MEGAMART"  d="m162.5 4.6h-10.4l-6.9 15-2.9-15h-11l-7.8 30.4h5.7l4.3-19.1 3.6 19.1h6.2l8.3-19.1c-0.7 8.5-0.9 11.5-0.9 14.3 0 3.7 2 5.7 5.7 5.7 3.2 0 5.2-1.3 6-2.4-0.7-1.3-1-2.8-1-5.9 0-4 0.5-10.6 1.1-23zm28.5 28.3c-2.6-3.8-2.5-10.1-3.5-28.3h-12.1l-14.9 30.4h7c0.5-1.9 1.4-4.3 2.6-7.2h7.6c0.7 5.3 2.3 8.1 7.1 8.1 2.9 0 5.1-1.1 6.2-3zm-14-20.4l0.6 11.5h-6c1.4-3.1 3-6.9 5.4-11.5zm19.7-7.9l-5.5 30.4h12l5.2-27.6h1.2c2.7 0 3.5 1.7 3.5 4.5 0 3.8-1.7 7-5.8 7-0.3 0-0.5 0-0.8 0 0.9 8.8 2.1 17 9.8 17 3.2 0 5.3-1.4 6.3-4.2-3-1.3-5-5.3-6.3-10.4 4.3-1.1 7.3-4.1 7.3-8.9 0-7.3-6.6-7.9-14.9-7.9-3.5 0-6.6 0.1-12 0.1zm52.6-0.1c-1.4 0.1-3.4 0.2-6.2 0.2-3.1 0-7.5-0.1-13.3-0.1-3 0-4.5 1.2-4.5 4.4l-0.1 1.9h6l-1.5 6.9c-1.5 7-1.9 10.8-1.9 12.6 0 3.5 1.9 5.5 5.9 5.5 2.1 0 4.5-0.6 6.3-1.8-0.3-0.4-0.7-1.8-0.7-3.3 0-1.2 0.2-3 0.5-4.6l3-15.3h2.8c3.1 0 4.4-1.7 4.4-3.7 0-0.9-0.2-1.8-0.7-2.7z"/>
</svg>